#!OML:ASF F:\twosubjects\two\Thursday\Session 1\Rory.ASF
:FULLY-SPECIFIED
:DEGREES
404
root 9.1462 13.5098 4.99321 -105.238 -85.6973 90.2157
lowerback 38.4878 1.06384 0.51001
upperback 11.9583 -0.237131 -1.10115
thorax -5.56432 -0.75263 -1.27261
lowerneck -9.17771 -7.27352 -8.57555
upperneck 36.1897 -14.6061 10.0631
head 15.7922 -6.64305 3.24436
rclavicle 8.34896e-015 -1.19271e-015
rhumerus 0.547666 23.6524 -82.198
rradius 55.9991
rwrist 17.1897
rhand -37.3991 37.6522
rfingers 7.12502
rthumb -10.4597 7.93239
lclavicle 8.34896e-015 -1.19271e-015
lhumerus 9.22915 -8.82042 84.2205
lradius 42.2283
lwrist 84.8917
lhand 28.8409 49.0783
lfingers 7.12502
lthumb 52.6619 68.7824
rfemur -55.1273 -7.80281 6.74007
rtibia 66.8854
rfoot 7.06444 -7.54901
rtoes 10.0136
lfemur -53.0538 8.51192 -15.589
ltibia 60.4514
lfoot 10.1844 -1.32242
ltoes 14.1118
405
root 9.13144 13.4744 4.98899 -110.18 -85.7301 95.7475
lowerback 37.7948 1.27647 0.213994
upperback 11.8282 -0.0237653 -0.979706
thorax -5.47773 -0.643145 -1.07133
lowerneck -9.07074 -7.41048 -8.6834
upperneck 36.2196 -14.8537 10.1297
head 15.8378 -6.76074 3.24957
rclavicle 1.09332e-014 1.31198e-014
rhumerus 0.370526 23.5122 -82.3486
rradius 56.0141
rwrist 17.4893
rhand -37.0242 37.6094
rfingers 7.12502
rthumb -10.098 7.8717
lclavicle 1.09332e-014 1.31198e-014
lhumerus 9.22915 -8.82042 84.2205
lradius 42.2283
lwrist 84.8917
lhand 28.8409 49.0783
lfingers 7.12502
lthumb 52.6619 68.7824
rfemur -56.0018 -7.57565 7.23771
rtibia 66.9271
rfoot 7.76308 -6.84075
rtoes 1.51953
lfemur -53.7869 9.17064 -15.5305
ltibia 60.4626
lfoot 9.74938 -3.21223
ltoes 5.41843
406
root 9.14123 13.4882 4.99195 -109.819 -85.3669 95.3595
lowerback 37.8517 1.46536 -0.356822
upperback 11.7605 0.0150709 -0.910344
thorax -5.57287 -0.636149 -0.714441
lowerneck -9.05179 -7.53302 -8.65121
upperneck 36.2937 -15.0062 9.94789
head 15.8683 -6.84079 3.13877
rclavicle -5.96354e-016 3.97569e-015
rhumerus 0.19745 23.2284 -82.4877
rradius 56.0138
rwrist 17.7468
rhand -36.7515 37.5825
rfingers 7.12502
rthumb -9.83486 7.83219
lclavicle -5.96354e-016 3.97569e-015
lhumerus 9.22915 -8.82042 84.2205
lradius 42.2283
lwrist 84.8917
lhand 28.8409 49.0783
lfingers 7.12502
lthumb 52.6619 68.7824
rfemur -55.9714 -7.50274 6.85059
rtibia 66.861
rfoot 7.88521 -6.6541
rtoes 0.357776
lfemur -53.6599 9.22094 -15.8797
ltibia 60.4031
lfoot 10.3309 -1.31477
ltoes 15.1137
407
root 9.15532 13.523 4.99698 -107.919 -85.3288 93.1581
lowerback 38.2717 1.4106 -0.344246
upperback 11.7341 -0.0699305 -0.945859
thorax -5.74022 -0.680585 -0.725671
lowerneck -9.01921 -7.52961 -8.52099
upperneck 36.1821 -15.0042 9.94654
head 15.7897 -6.82534 3.11556
rclavicle 1.98785e-015 1.98785e-015
rhumerus 0.231749 22.984 -82.5622
rradius 55.8171
rwrist 17.738
rhand -36.8409 37.2728
rfingers 7.12502
rthumb -9.92115 7.52662
lclavicle 1.98785e-015 1.98785e-015
lhumerus 9.22915 -8.82042 84.2205
lradius 42.2283
lwrist 84.8917
lhand 28.8409 49.0783
lfingers 7.12502
lthumb 52.6619 68.7824
rfemur -55.5194 -7.59671 6.50137
rtibia 66.882
rfoot 7.3025 -7.28306
rtoes 8.14269
lfemur -53.2015 8.88126 -15.8426
ltibia 60.3831
lfoot 10.4711 -0.613419
ltoes 19.0957
408
root 9.15079 13.5281 4.99599 -108.747 -85.5688 94.1615
lowerback 38.1174 1.31284 -0.213176
upperback 11.6558 -0.123058 -0.929029
thorax -5.77646 -0.697444 -0.756641
lowerneck -9.07433 -7.50542 -8.72658
upperneck 36.1791 -15.0203 10.1898
head 15.8548 -6.83277 3.24902
rclavicle -4.77083e-015 -1.13307e-014
rhumerus 0.406006 23.0068 -82.6151
rradius 55.5563
rwrist 17.5021
rhand -36.6995 37.2049
rfingers 7.12502
rthumb -9.78476 7.45225
lclavicle -4.77083e-015 -1.13307e-014
lhumerus 9.22915 -8.82042 84.2205
lradius 42.2283
lwrist 84.8917
lhand 28.8409 49.0783
lfingers 7.12502
lthumb 52.6619 68.7824
rfemur -55.7099 -7.72355 6.79229
rtibia 66.9605
rfoot 7.13902 -7.01058
rtoes 8.08063
lfemur -53.3637 8.8796 -15.5091
ltibia 60.3604
lfoot 10.8725 1.1515
ltoes 27.211
